<svg xmlns:xlink="http://www.w3.org/1999/xlink" width="900" xmlns="http://www.w3.org/2000/svg" height="900" id="screenshot-822c3bd0-36e7-80dd-8003-f00e2c4c71a8" viewBox="-0 0 900 900" style="-webkit-print-color-adjust: exact;" fill="none" version="1.1"><g id="shape-822c3bd0-36e7-80dd-8003-f00e2c4c71a8" rx="0" ry="0"><g id="shape-822c3bd0-36e7-80dd-8003-f00e2c4c71a9"><g class="fills" id="fills-822c3bd0-36e7-80dd-8003-f00e2c4c71a9"><rect rx="280" ry="280" x="0" y="0" transform="matrix(1.000000, 0.000000, 0.000000, 1.000000, 0.000000, 0.000000)" width="900" height="900" style="fill: rgb(31, 31, 31); fill-opacity: 1;"/></g><g id="strokes-822c3bd0-36e7-80dd-8003-f00e2c4c71a9" class="strokes"><g class="inner-stroke-shape" transform="matrix(1.000000, 0.000000, 0.000000, 1.000000, 0.000000, 0.000000)"><defs><clipPath id="inner-stroke-rumext-id-2-822c3bd0-36e7-80dd-8003-f00e2c4c71a9-0"><use href="#stroke-shape-rumext-id-2-822c3bd0-36e7-80dd-8003-f00e2c4c71a9-0"/></clipPath><rect rx="280" ry="280" x="0" y="0" width="900" height="900" id="stroke-shape-rumext-id-2-822c3bd0-36e7-80dd-8003-f00e2c4c71a9-0" style="fill: none; stroke-width: 180; stroke: rgb(24, 24, 24); stroke-opacity: 1;"/></defs><use href="#stroke-shape-rumext-id-2-822c3bd0-36e7-80dd-8003-f00e2c4c71a9-0" clip-path="url('#inner-stroke-rumext-id-2-822c3bd0-36e7-80dd-8003-f00e2c4c71a9-0')"/></g></g></g><g id="shape-822c3bd0-36e7-80dd-8003-f00e61fd12d7" width="32" height="32" rx="0" ry="0" style="fill: rgb(0, 0, 0);"><g id="shape-822c3bd0-36e7-80dd-8003-f00e61fd8bfe"><g class="fills" id="fills-822c3bd0-36e7-80dd-8003-f00e61fd8bfe"><path rx="0" ry="0" d="M263.688,423.813C263.688,401.703,281.610,383.781,303.719,383.781L597.281,383.781C619.391,383.781,637.313,401.703,637.313,423.813L637.313,573.930C637.313,596.039,619.391,613.961,597.281,613.961L303.719,613.961C281.610,613.961,263.688,596.039,263.688,573.930L263.688,423.813ZZ" style="fill: rgb(205, 196, 214);"/></g></g><g id="shape-822c3bd0-36e7-80dd-8003-f00e62012a57"><g class="fills" id="fills-822c3bd0-36e7-80dd-8003-f00e62012a57"><path rx="0" ry="0" d="M290.375,417.141C290.375,413.456,293.362,410.469,297.047,410.469L310.391,410.469C314.075,410.469,317.063,413.456,317.063,417.141L317.063,423.813C317.063,427.497,314.075,430.484,310.391,430.484L297.047,430.484C293.362,430.484,290.375,427.497,290.375,423.813L290.375,417.141ZZM290.375,470.516C290.375,466.831,293.362,463.844,297.047,463.844L310.391,463.844C314.075,463.844,317.063,466.831,317.063,470.516L317.063,483.859C317.063,487.544,314.075,490.531,310.391,490.531L297.047,490.531C293.362,490.531,290.375,487.544,290.375,483.859L290.375,470.516ZZM323.734,503.875C320.050,503.875,317.063,506.863,317.063,510.547L317.063,523.891C317.063,527.575,320.050,530.563,323.734,530.563L337.078,530.563C340.763,530.563,343.750,527.575,343.750,523.891L343.750,510.547C343.750,506.863,340.763,503.875,337.078,503.875L323.734,503.875ZZM337.078,543.906C333.393,543.906,330.406,546.894,330.406,550.578L330.406,563.922C330.406,567.606,333.393,570.594,337.078,570.594L350.422,570.594C354.107,570.594,357.094,567.606,357.094,563.922L357.094,550.578C357.094,546.894,354.107,543.906,350.422,543.906L337.078,543.906ZZM550.578,543.906C546.894,543.906,543.906,546.894,543.906,550.578L543.906,563.922C543.906,567.606,546.894,570.594,550.578,570.594L563.922,570.594C567.606,570.594,570.594,567.606,570.594,563.922L570.594,550.578C570.594,546.894,567.606,543.906,563.922,543.906L550.578,543.906ZZM370.438,550.578C370.438,546.894,373.425,543.906,377.109,543.906L523.891,543.906C527.575,543.906,530.563,546.894,530.563,550.578L530.563,563.922C530.563,567.606,527.575,570.594,523.891,570.594L377.109,570.594C373.425,570.594,370.438,567.606,370.438,563.922L370.438,550.578ZZM357.094,510.547C357.094,506.863,360.081,503.875,363.766,503.875L377.109,503.875C380.794,503.875,383.781,506.863,383.781,510.547L383.781,523.891C383.781,527.575,380.794,530.563,377.109,530.563L363.766,530.563C360.081,530.563,357.094,527.575,357.094,523.891L357.094,510.547ZZM403.797,503.875C400.113,503.875,397.125,506.863,397.125,510.547L397.125,523.891C397.125,527.575,400.113,530.563,403.797,530.563L417.141,530.563C420.825,530.563,423.813,527.575,423.813,523.891L423.813,510.547C423.813,506.863,420.825,503.875,417.141,503.875L403.797,503.875ZZM437.156,510.547C437.156,506.863,440.144,503.875,443.828,503.875L457.172,503.875C460.856,503.875,463.844,506.863,463.844,510.547L463.844,523.891C463.844,527.575,460.856,530.563,457.172,530.563L443.828,530.563C440.144,530.563,437.156,527.575,437.156,523.891L437.156,510.547ZZM483.859,503.875C480.175,503.875,477.188,506.863,477.188,510.547L477.188,523.891C477.188,527.575,480.175,530.563,483.859,530.563L497.203,530.563C500.887,530.563,503.875,527.575,503.875,523.891L503.875,510.547C503.875,506.863,500.887,503.875,497.203,503.875L483.859,503.875ZZM517.219,510.547C517.219,506.863,520.206,503.875,523.891,503.875L537.234,503.875C540.919,503.875,543.906,506.863,543.906,510.547L543.906,523.891C543.906,527.575,540.919,530.563,537.234,530.563L523.891,530.563C520.206,530.563,517.219,527.575,517.219,523.891L517.219,510.547ZZM563.922,503.875C560.238,503.875,557.250,506.863,557.250,510.547L557.250,523.891C557.250,527.575,560.238,530.563,563.922,530.563L577.266,530.563C580.950,530.563,583.938,527.575,583.938,523.891L583.938,510.547C583.938,506.863,580.950,503.875,577.266,503.875L563.922,503.875ZZM337.078,463.844C333.393,463.844,330.406,466.831,330.406,470.516L330.406,483.859C330.406,487.544,333.393,490.531,337.078,490.531L350.422,490.531C354.107,490.531,357.094,487.544,357.094,483.859L357.094,470.516C357.094,466.831,354.107,463.844,350.422,463.844L337.078,463.844ZZM370.438,470.516C370.438,466.831,373.425,463.844,377.109,463.844L390.453,463.844C394.137,463.844,397.125,466.831,397.125,470.516L397.125,483.859C397.125,487.544,394.137,490.531,390.453,490.531L377.109,490.531C373.425,490.531,370.438,487.544,370.438,483.859L370.438,470.516ZZM417.141,463.844C413.456,463.844,410.469,466.831,410.469,470.516L410.469,483.859C410.469,487.544,413.456,490.531,417.141,490.531L430.484,490.531C434.169,490.531,437.156,487.544,437.156,483.859L437.156,470.516C437.156,466.831,434.169,463.844,430.484,463.844L417.141,463.844ZZM450.500,470.516C450.500,466.831,453.488,463.844,457.172,463.844L470.516,463.844C474.200,463.844,477.188,466.831,477.188,470.516L477.188,483.859C477.188,487.544,474.200,490.531,470.516,490.531L457.172,490.531C453.488,490.531,450.500,487.544,450.500,483.859L450.500,470.516ZZM497.203,463.844C493.519,463.844,490.531,466.831,490.531,470.516L490.531,483.859C490.531,487.544,493.519,490.531,497.203,490.531L510.547,490.531C514.231,490.531,517.219,487.544,517.219,483.859L517.219,470.516C517.219,466.831,514.231,463.844,510.547,463.844L497.203,463.844ZZM530.563,470.516C530.563,466.831,533.550,463.844,537.234,463.844L550.578,463.844C554.262,463.844,557.250,466.831,557.250,470.516L557.250,483.859C557.250,487.544,554.262,490.531,550.578,490.531L537.234,490.531C533.550,490.531,530.563,487.544,530.563,483.859L530.563,470.516ZZM577.266,463.844C573.581,463.844,570.594,466.831,570.594,470.516L570.594,483.859C570.594,487.544,573.581,490.531,577.266,490.531L590.609,490.531C594.294,490.531,597.281,487.544,597.281,483.859L597.281,470.516C597.281,466.831,594.294,463.844,590.609,463.844L577.266,463.844ZZM377.109,410.469C373.425,410.469,370.438,413.456,370.438,417.141L370.438,423.813C370.438,427.497,373.425,430.484,377.109,430.484L390.453,430.484C394.137,430.484,397.125,427.497,397.125,423.813L397.125,417.141C397.125,413.456,394.137,410.469,390.453,410.469L377.109,410.469ZZM410.469,417.141C410.469,413.456,413.456,410.469,417.141,410.469L430.484,410.469C434.169,410.469,437.156,413.456,437.156,417.141L437.156,423.813C437.156,427.497,434.169,430.484,430.484,430.484L417.141,430.484C413.456,430.484,410.469,427.497,410.469,423.813L410.469,417.141ZZM457.172,410.469C453.488,410.469,450.500,413.456,450.500,417.141L450.500,423.813C450.500,427.497,453.488,430.484,457.172,430.484L470.516,430.484C474.200,430.484,477.188,427.497,477.188,423.813L477.188,417.141C477.188,413.456,474.200,410.469,470.516,410.469L457.172,410.469ZZM490.531,417.141C490.531,413.456,493.519,410.469,497.203,410.469L510.547,410.469C514.231,410.469,517.219,413.456,517.219,417.141L517.219,423.813C517.219,427.497,514.231,430.484,510.547,430.484L497.203,430.484C493.519,430.484,490.531,427.497,490.531,423.813L490.531,417.141ZZM537.234,410.469C533.550,410.469,530.563,413.456,530.563,417.141L530.563,423.813C530.563,427.497,533.550,430.484,537.234,430.484L550.578,430.484C554.262,430.484,557.250,427.497,557.250,423.813L557.250,417.141C557.250,413.456,554.262,410.469,550.578,410.469L537.234,410.469ZZM570.594,417.141C570.594,413.456,573.581,410.469,577.266,410.469L590.609,410.469C594.294,410.469,597.281,413.456,597.281,417.141L597.281,423.813C597.281,427.497,594.294,430.484,590.609,430.484L577.266,430.484C573.581,430.484,570.594,427.497,570.594,423.813L570.594,417.141ZZM263.688,597.281L263.688,570.594C263.688,592.703,281.610,610.625,303.719,610.625L597.281,610.625C619.391,610.625,637.313,592.703,637.313,570.594L637.313,597.281C637.313,619.391,619.391,637.313,597.281,637.313L303.719,637.313C281.610,637.313,263.688,619.391,263.688,597.281ZZ" style="fill: rgb(153, 142, 164);"/></g></g></g></g></svg>